<?xml version="1.0" encoding="utf-8"?>
<!-- Generated by IcoMoon.io -->
<!DOCTYPE svg PUBLIC "-//W3C//DTD SVG 1.1//EN" "http://www.w3.org/Graphics/SVG/1.1/DTD/svg11.dtd">
<svg version="1.1" xmlns="http://www.w3.org/2000/svg" xmlns:xlink="http://www.w3.org/1999/xlink" width="20" height="20" viewBox="0 0 20 20">
	<path d="M17.071 2.929c-1.81-1.81-4.309-2.929-7.071-2.929-4.287 0-7.943 2.698-9.365 6.488l2.341 0.878c1.066-2.843 3.809-4.866 7.024-4.866 2.071 0 3.946 0.84 5.303 2.197l-2.803 2.803h7.5v-7.5l-2.929 2.929zM10 17.5c-2.071 0-3.946-0.84-5.303-2.197l2.803-2.803h-7.5v7.5l2.93-2.93c1.809 1.81 4.309 2.93 7.070 2.93 4.287 0 7.943-2.698 9.365-6.488l-2.341-0.878c-1.066 2.843-3.809 4.866-7.024 4.866z" fill="#ffffff" />
</svg>
