<?xml version="1.0" encoding="utf-8"?>
<!-- Generated by IcoMoon.io -->
<!DOCTYPE svg PUBLIC "-//W3C//DTD SVG 1.1//EN" "http://www.w3.org/Graphics/SVG/1.1/DTD/svg11.dtd">
<svg version="1.1" xmlns="http://www.w3.org/2000/svg" xmlns:xlink="http://www.w3.org/1999/xlink" width="20" height="20" viewBox="0 0 20 20">
	<path d="M1.875 8.75c-1.426 0-0.625-3.75 0.625-3.75-0.625 0 0-3.125 1.25-3.125 0-1.25 1.25-1.875 2.5-1.875 5.28 0 3.423 1.321 8.75 1.875v10c-4.706 1.411-9.375 4.95-9.375 8.125-1.035 0-3.75-1.25 0-7.5 0 0-3.125 0-3.75 0-1.875 0-1.25-3.75 0-3.75zM16.25 11.875v-10h-1.25v-0.625h2.5c0.688 0 1.25 0.844 1.25 1.875v7.5c0 1.031-0.563 1.875-1.25 1.875h-2.5v-0.625h1.25z" fill="#ffffff" />
</svg>
